Coordinates
version=1
nRows=27
nColumns=12
inDegrees=yes

Units are S.I. units (second, meters, Newtons, ...)
Angles are in degrees

endheader
time	SC_y	SC_z	SC_x	AC_y	AC_z	AC_x	GH_y	GH_z	GH_yy	EL_x	PS_y
       0.0              -11.64          2.666          25.72          34.53         -6.476         -8.643         -93.56          23.14         -87.12          110.2          12.36
   0.02658              -11.64           2.67          25.72          34.53         -6.476          -8.64         -93.55          23.15         -87.08          110.2          12.38
   0.05315              -11.65          2.675          25.73          34.53         -6.476         -8.637         -93.54          23.15         -87.04          110.2          12.41
   0.07973              -11.65           2.68          25.73          34.54         -6.477         -8.634         -93.52          23.16          -87.0          110.2          12.43
    0.1063              -11.65          2.686          25.74          34.54         -6.477          -8.63         -93.51          23.16         -86.96          110.2          12.45
    0.1329              -11.66          2.691          25.74          34.55         -6.477         -8.627         -93.49          23.17         -86.91          110.2          12.48
    0.1595              -11.66          2.697          25.75          34.55         -6.478         -8.623         -93.47          23.18         -86.86          110.2          12.51
     0.186              -11.67          2.704          25.75          34.56         -6.478         -8.619         -93.45          23.19          -86.8          110.2          12.54
    0.2126              -11.67          2.711          25.76          34.56         -6.479         -8.614         -93.43          23.19         -86.74          110.2          12.57
    0.2392              -11.68          2.718          25.77          34.57         -6.479         -8.609         -93.41           23.2         -86.68          110.2           12.6
    0.2658              -11.69          2.726          25.77          34.57         -6.479         -8.604         -93.38          23.21         -86.61          110.2          12.64
    0.2923              -11.69          2.735          25.78          34.58          -6.48         -8.598         -93.36          23.22         -86.54          110.2          12.68
    0.3189               -11.7          2.744          25.79          34.59         -6.481         -8.592         -93.33          23.23         -86.46          110.2          12.72
    0.3455              -11.71          2.754           25.8           34.6         -6.481         -8.586          -93.3          23.24         -86.38          110.2          12.77
    0.3721              -11.71          2.765          25.81           34.6         -6.482         -8.579         -93.27          23.26         -86.29          110.2          12.82
    0.3986              -11.72          2.777          25.82          34.61         -6.483         -8.571         -93.23          23.27         -86.19          110.2          12.87
    0.4252              -11.73           2.79          25.83          34.62         -6.483         -8.563          -93.2          23.29         -86.08          110.2          12.93
    0.4518              -11.74          2.804          25.84          34.63         -6.484         -8.554         -93.15           23.3         -85.96          110.2          12.99
    0.4784              -11.76          2.819          25.86          34.65         -6.485         -8.544         -93.11          23.32         -85.84          110.3          13.06
    0.5049              -11.77          2.836          25.87          34.66         -6.486         -8.533         -93.06          23.34          -85.7          110.3          13.14
    0.5315              -11.78          2.854          25.89          34.67         -6.487         -8.521         -93.01          23.36         -85.54          110.3          13.22
    0.5581               -11.8          2.874          25.91          34.69         -6.489         -8.508         -92.95          23.38         -85.37          110.3          13.32
    0.5847              -11.81          2.896          25.93          34.71          -6.49         -8.494         -92.88          23.41         -85.19          110.3          13.42
    0.6112              -11.83          2.921          25.95          34.73         -6.491         -8.478         -92.81          23.44         -84.98          110.3          13.53
    0.6378              -11.85          2.949          25.98          34.75         -6.493          -8.46         -92.72          23.47         -84.75          110.3          13.66
    0.6644              -11.88          2.979           26.0          34.77         -6.495          -8.44         -92.63          23.51         -84.49          110.3           13.8
     0.691               -11.9          3.013          26.03           34.8         -6.497         -8.418         -92.53          23.55          -84.2          110.3          13.95
